<?xml version="1.0" encoding="windows-1252" standalone="no"?>
<svg xmlns="http://www.w3.org/2000/svg" xmlns:xlink="http://www.w3.org/1999/xlink" contentStyleType="text/css" height="558px" preserveAspectRatio="none" style="width:988px;height:558px;background:#FFFFFF;" version="1.1" viewBox="0 0 988 558" width="988px" zoomAndPan="magnify"><defs/><g><line style="stroke:#181818;stroke-width:0.5;stroke-dasharray:5.0,5.0;" x1="77.5" x2="77.5" y1="36.2969" y2="522.2891"/><line style="stroke:#181818;stroke-width:0.5;stroke-dasharray:5.0,5.0;" x1="229.5" x2="229.5" y1="36.2969" y2="522.2891"/><line style="stroke:#181818;stroke-width:0.5;stroke-dasharray:5.0,5.0;" x1="339" x2="339" y1="36.2969" y2="522.2891"/><line style="stroke:#181818;stroke-width:0.5;stroke-dasharray:5.0,5.0;" x1="502" x2="502" y1="36.2969" y2="522.2891"/><line style="stroke:#181818;stroke-width:0.5;stroke-dasharray:5.0,5.0;" x1="673" x2="673" y1="36.2969" y2="522.2891"/><line style="stroke:#181818;stroke-width:0.5;stroke-dasharray:5.0,5.0;" x1="795.5" x2="795.5" y1="36.2969" y2="522.2891"/><line style="stroke:#181818;stroke-width:0.5;stroke-dasharray:5.0,5.0;" x1="904.5" x2="904.5" y1="36.2969" y2="522.2891"/><rect fill="#E2E2F0" height="30.2969" rx="2.5" ry="2.5" style="stroke:#181818;stroke-width:0.5;" width="145" x="5" y="5"/><text fill="#000000" font-family="sans-serif" font-size="14" lengthAdjust="spacing" textLength="131" x="12" y="24.9951">OpenWeatherMap</text><rect fill="#E2E2F0" height="30.2969" rx="2.5" ry="2.5" style="stroke:#181818;stroke-width:0.5;" width="100" x="179.5" y="5"/><text fill="#000000" font-family="sans-serif" font-size="14" lengthAdjust="spacing" textLength="86" x="186.5" y="24.9951">PollutionAPI</text><rect fill="#E2E2F0" height="30.2969" rx="2.5" ry="2.5" style="stroke:#181818;stroke-width:0.5;" width="99" x="289.5" y="5"/><text fill="#000000" font-family="sans-serif" font-size="14" lengthAdjust="spacing" textLength="85" x="296.5" y="24.9951">OpenMeteo</text><rect fill="#E2E2F0" height="30.2969" rx="2.5" ry="2.5" style="stroke:#181818;stroke-width:0.5;" width="99" x="452.5" y="5"/><text fill="#000000" font-family="sans-serif" font-size="14" lengthAdjust="spacing" textLength="85" x="459.5" y="24.9951">WeatherAPI</text><rect fill="#E2E2F0" height="30.2969" rx="2.5" ry="2.5" style="stroke:#181818;stroke-width:0.5;" width="140" x="603" y="5"/><text fill="#000000" font-family="sans-serif" font-size="14" lengthAdjust="spacing" textLength="126" x="610" y="24.9951">PositionOffsetter</text><rect fill="#E2E2F0" height="30.2969" rx="2.5" ry="2.5" style="stroke:#181818;stroke-width:0.5;" width="85" x="753" y="5"/><text fill="#000000" font-family="sans-serif" font-size="14" lengthAdjust="spacing" textLength="71" x="760" y="24.9951">LocalData</text><rect fill="#E2E2F0" height="30.2969" rx="2.5" ry="2.5" style="stroke:#181818;stroke-width:0.5;" width="73" x="868" y="5"/><text fill="#000000" font-family="sans-serif" font-size="14" lengthAdjust="spacing" textLength="59" x="875" y="24.9951">SKLearn</text><rect fill="#E2E2F0" height="30.2969" rx="2.5" ry="2.5" style="stroke:#181818;stroke-width:0.5;" width="145" x="5" y="522.2891"/><text fill="#000000" font-family="sans-serif" font-size="14" lengthAdjust="spacing" textLength="131" x="12" y="542.2842">OpenWeatherMap</text><rect fill="#E2E2F0" height="30.2969" rx="2.5" ry="2.5" style="stroke:#181818;stroke-width:0.5;" width="100" x="179.5" y="522.2891"/><text fill="#000000" font-family="sans-serif" font-size="14" lengthAdjust="spacing" textLength="86" x="186.5" y="542.2842">PollutionAPI</text><rect fill="#E2E2F0" height="30.2969" rx="2.5" ry="2.5" style="stroke:#181818;stroke-width:0.5;" width="99" x="289.5" y="522.2891"/><text fill="#000000" font-family="sans-serif" font-size="14" lengthAdjust="spacing" textLength="85" x="296.5" y="542.2842">OpenMeteo</text><rect fill="#E2E2F0" height="30.2969" rx="2.5" ry="2.5" style="stroke:#181818;stroke-width:0.5;" width="99" x="452.5" y="522.2891"/><text fill="#000000" font-family="sans-serif" font-size="14" lengthAdjust="spacing" textLength="85" x="459.5" y="542.2842">WeatherAPI</text><rect fill="#E2E2F0" height="30.2969" rx="2.5" ry="2.5" style="stroke:#181818;stroke-width:0.5;" width="140" x="603" y="522.2891"/><text fill="#000000" font-family="sans-serif" font-size="14" lengthAdjust="spacing" textLength="126" x="610" y="542.2842">PositionOffsetter</text><rect fill="#E2E2F0" height="30.2969" rx="2.5" ry="2.5" style="stroke:#181818;stroke-width:0.5;" width="85" x="753" y="522.2891"/><text fill="#000000" font-family="sans-serif" font-size="14" lengthAdjust="spacing" textLength="71" x="760" y="542.2842">LocalData</text><rect fill="#E2E2F0" height="30.2969" rx="2.5" ry="2.5" style="stroke:#181818;stroke-width:0.5;" width="73" x="868" y="522.2891"/><text fill="#000000" font-family="sans-serif" font-size="14" lengthAdjust="spacing" textLength="59" x="875" y="542.2842">SKLearn</text><polygon fill="#181818" points="88.5,61.4297,78.5,65.4297,88.5,69.4297,84.5,65.4297" style="stroke:#181818;stroke-width:1.0;"/><line style="stroke:#181818;stroke-width:1.0;stroke-dasharray:2.0,2.0;" x1="82.5" x2="228.5" y1="65.4297" y2="65.4297"/><text fill="#000000" font-family="sans-serif" font-size="13" lengthAdjust="spacing" textLength="99" x="94.5" y="60.3638">get air pollution</text><polygon fill="#181818" points="350,61.4297,340,65.4297,350,69.4297,346,65.4297" style="stroke:#181818;stroke-width:1.0;"/><line style="stroke:#181818;stroke-width:1.0;stroke-dasharray:2.0,2.0;" x1="344" x2="501" y1="65.4297" y2="65.4297"/><text fill="#000000" font-family="sans-serif" font-size="13" lengthAdjust="spacing" textLength="139" x="356" y="60.3638">get historical weather</text><polygon fill="#181818" points="217.5,90.5625,227.5,94.5625,217.5,98.5625,221.5,94.5625" style="stroke:#181818;stroke-width:1.0;"/><line style="stroke:#181818;stroke-width:1.0;stroke-dasharray:2.0,2.0;" x1="77.5" x2="223.5" y1="94.5625" y2="94.5625"/><text fill="#000000" font-family="sans-serif" font-size="13" lengthAdjust="spacing" textLength="97" x="84.5" y="89.4966">return pollution</text><polygon fill="#181818" points="490,90.5625,500,94.5625,490,98.5625,494,94.5625" style="stroke:#181818;stroke-width:1.0;"/><line style="stroke:#181818;stroke-width:1.0;stroke-dasharray:2.0,2.0;" x1="339" x2="496" y1="94.5625" y2="94.5625"/><text fill="#000000" font-family="sans-serif" font-size="13" lengthAdjust="spacing" textLength="96" x="346" y="89.4966">return weather</text><polygon fill="#181818" points="661,134.8281,671,138.8281,661,142.8281,665,138.8281" style="stroke:#181818;stroke-width:1.0;"/><line style="stroke:#181818;stroke-width:1.0;stroke-dasharray:2.0,2.0;" x1="502" x2="667" y1="138.8281" y2="138.8281"/><text fill="#000000" font-family="sans-serif" font-size="13" lengthAdjust="spacing" textLength="147" x="509" y="118.6294">(wind_speed, wind_dir)</text><text fill="#000000" font-family="sans-serif" font-size="13" lengthAdjust="spacing" textLength="106" x="513" y="133.7622">get new position</text><polygon fill="#181818" points="513,163.9609,503,167.9609,513,171.9609,509,167.9609" style="stroke:#181818;stroke-width:1.0;"/><line style="stroke:#181818;stroke-width:1.0;stroke-dasharray:2.0,2.0;" x1="507" x2="672" y1="167.9609" y2="167.9609"/><text fill="#000000" font-family="sans-serif" font-size="13" lengthAdjust="spacing" textLength="124" x="519" y="162.895">return new position</text><polygon fill="#181818" points="240.5,193.0938,230.5,197.0938,240.5,201.0938,236.5,197.0938" style="stroke:#181818;stroke-width:1.0;"/><line style="stroke:#181818;stroke-width:1.0;stroke-dasharray:2.0,2.0;" x1="234.5" x2="501" y1="197.0938" y2="197.0938"/><text fill="#000000" font-family="sans-serif" font-size="13" lengthAdjust="spacing" textLength="181" x="246.5" y="192.0278">get pollution at new position</text><polygon fill="#181818" points="88.5,222.2266,78.5,226.2266,88.5,230.2266,84.5,226.2266" style="stroke:#181818;stroke-width:1.0;"/><line style="stroke:#181818;stroke-width:1.0;stroke-dasharray:2.0,2.0;" x1="82.5" x2="228.5" y1="226.2266" y2="226.2266"/><text fill="#000000" font-family="sans-serif" font-size="13" lengthAdjust="spacing" textLength="110" x="94.5" y="221.1606">get new pollution</text><polygon fill="#181818" points="217.5,251.3594,227.5,255.3594,217.5,259.3594,221.5,255.3594" style="stroke:#181818;stroke-width:1.0;"/><line style="stroke:#181818;stroke-width:1.0;stroke-dasharray:2.0,2.0;" x1="77.5" x2="223.5" y1="255.3594" y2="255.3594"/><text fill="#000000" font-family="sans-serif" font-size="13" lengthAdjust="spacing" textLength="128" x="84.5" y="250.2935">return new pollution</text><path d="M213.5,267.3594 L283.5,267.3594 L283.5,274.4922 L273.5,284.4922 L213.5,284.4922 L213.5,267.3594 " fill="#EEEEEE" style="stroke:#000000;stroke-width:1.5;"/><rect fill="none" height="85.3984" style="stroke:#000000;stroke-width:1.5;" width="598" x="213.5" y="267.3594"/><text fill="#000000" font-family="sans-serif" font-size="13" font-weight="bold" lengthAdjust="spacing" textLength="25" x="228.5" y="280.4263">par</text><polygon fill="#181818" points="783.5,311.625,793.5,315.625,783.5,319.625,787.5,315.625" style="stroke:#181818;stroke-width:1.0;"/><line style="stroke:#181818;stroke-width:1.0;stroke-dasharray:2.0,2.0;" x1="502" x2="789.5" y1="315.625" y2="315.625"/><text fill="#000000" font-family="sans-serif" font-size="13" lengthAdjust="spacing" textLength="88" x="509" y="310.5591">save weather</text><polygon fill="#181818" points="783.5,340.7578,793.5,344.7578,783.5,348.7578,787.5,344.7578" style="stroke:#181818;stroke-width:1.0;"/><line style="stroke:#181818;stroke-width:1.0;stroke-dasharray:2.0,2.0;" x1="229.5" x2="789.5" y1="344.7578" y2="344.7578"/><text fill="#000000" font-family="sans-serif" font-size="13" lengthAdjust="spacing" textLength="89" x="236.5" y="339.6919">save pollution</text><path d="M779.5,370.7578 L849.5,370.7578 L849.5,377.8906 L839.5,387.8906 L779.5,387.8906 L779.5,370.7578 " fill="#EEEEEE" style="stroke:#000000;stroke-width:1.5;"/><rect fill="none" height="85.3984" style="stroke:#000000;stroke-width:1.5;" width="141" x="779.5" y="370.7578"/><text fill="#000000" font-family="sans-serif" font-size="13" font-weight="bold" lengthAdjust="spacing" textLength="25" x="794.5" y="383.8247">par</text><polygon fill="#181818" points="892.5,415.0234,902.5,419.0234,892.5,423.0234,896.5,419.0234" style="stroke:#181818;stroke-width:1.0;"/><line style="stroke:#181818;stroke-width:1.0;stroke-dasharray:2.0,2.0;" x1="795.5" x2="898.5" y1="419.0234" y2="419.0234"/><text fill="#000000" font-family="sans-serif" font-size="13" lengthAdjust="spacing" textLength="84" x="802.5" y="413.9575">load weather</text><polygon fill="#181818" points="892.5,444.1563,902.5,448.1563,892.5,452.1563,896.5,448.1563" style="stroke:#181818;stroke-width:1.0;"/><line style="stroke:#181818;stroke-width:1.0;stroke-dasharray:2.0,2.0;" x1="795.5" x2="898.5" y1="448.1563" y2="448.1563"/><text fill="#000000" font-family="sans-serif" font-size="13" lengthAdjust="spacing" textLength="85" x="802.5" y="443.0903">load pollution</text><line style="stroke:#181818;stroke-width:1.0;stroke-dasharray:2.0,2.0;" x1="904.5" x2="946.5" y1="491.2891" y2="491.2891"/><line style="stroke:#181818;stroke-width:1.0;stroke-dasharray:2.0,2.0;" x1="946.5" x2="946.5" y1="491.2891" y2="504.2891"/><line style="stroke:#181818;stroke-width:1.0;stroke-dasharray:2.0,2.0;" x1="905.5" x2="946.5" y1="504.2891" y2="504.2891"/><polygon fill="#181818" points="915.5,500.2891,905.5,504.2891,915.5,508.2891,911.5,504.2891" style="stroke:#181818;stroke-width:1.0;"/><text fill="#000000" font-family="sans-serif" font-size="13" lengthAdjust="spacing" textLength="70" x="911.5" y="486.2231">calling KNN</text><!--SRC=[XPBDIiKm48NtVOfn8mhs1O88WXkvl-32ZI23cTiRo4t2P6h1fxVDxNyhxaBcVETCJtCJ68iBWf3_0U6IiaCWzqueP-8T1dZCSpXwQqintZqVNnKK98268NItsMt3xAZsIFAMxiLd4yMp-K8BrNKq3ydpfra8avJirZCQzJYZrNRUmwZrZQPnE9nEaKI8rLrbdFwCWKW_G3fhm_SVBYthgAfJhqYsOF_A7bEmt61UN_zPW8l4GPlWQLDgj6FNp7zTJbRie82BehQ-_aClAAWWuZVrVVRtAsyX2GTNSZev3qXZ_BRP4h9JO3tg5TkbPkhOpgQw6hR65R3Pxty1]--></g></svg>